<svg id="Capa_1" data-name="Capa 1" xmlns="http://www.w3.org/2000/svg" viewBox="0 0 446.84 420.56"><defs><style>.cls-1{fill:#fff;}</style></defs><title>cart</title><path class="cls-1" d="M444.09,93.1a14.34,14.34,0,0,0-11.58-5.89H109.92a13.92,13.92,0,0,0-1.85.12L94.79,49.06a14.35,14.35,0,0,0-8.3-8.65L19.59,14.13A14.34,14.34,0,0,0,9.1,40.83L69.86,64.7l74.38,214.4a11.88,11.88,0,0,0-7.33,7.19L115.41,346a11.95,11.95,0,0,0,11.24,16h11a43,43,0,1,0,63.94,0H295.4a43,43,0,1,0,63.93,0h13.43a11.95,11.95,0,0,0,0-23.89H143.65l13.32-37a14.2,14.2,0,0,0,5.52,1.15H372.77a14.33,14.33,0,0,0,13.65-10l59.74-186.39A14.33,14.33,0,0,0,444.09,93.1ZM169.66,409.81a19.12,19.12,0,1,1,19.12-19.12A19.13,19.13,0,0,1,169.66,409.81Zm157.71,0a19.12,19.12,0,1,1,19.12-19.12A19.14,19.14,0,0,1,327.37,409.81Zm75.15-261.66H329.36V115.89h83.5Zm-21.07,65.71H329.36v-37h64Zm-146.88,0v-37h66.11v37Zm66.11,28.68V273.6H234.57V242.54ZM139.12,176.82H205.9v37H152Zm95.46-28.67V115.89h66.11v32.26ZM205.9,115.89v32.26H129.16L118,115.89Zm-44,126.65h44V273.6H172.69ZM329.36,273.6V242.54h42.91l-10,31.06Z" transform="translate(0 -13.14)"/></svg>